<?xml version="1.0" standalone="no"?>
<!DOCTYPE svg PUBLIC "-//W3C//DTD SVG 20010904//EN"
 "http://www.w3.org/TR/2001/REC-SVG-20010904/DTD/svg10.dtd">
<svg version="1.0" xmlns="http://www.w3.org/2000/svg"
 width="500.000000pt" height="500.000000pt" viewBox="0 0 500.000000 500.000000"
 preserveAspectRatio="xMidYMid meet">

<g transform="translate(0.000000,500.000000) scale(0.100000,-0.100000)"
fill="#000000" stroke="none">
<path d="M510 2494 l0 -375 353 3 c314 3 356 5 392 21 91 41 131 114 123 221
-7 77 -30 120 -82 151 -37 22 -38 23 -17 34 38 21 64 87 59 156 -5 74 -33 119
-92 146 -37 17 -71 19 -388 19 l-348 0 0 -376z m548 200 c18 -12 22 -24 20
-52 -4 -54 -28 -62 -185 -62 l-133 0 0 65 0 65 138 0 c110 0 142 -3 160 -16z
m23 -275 c48 -25 44 -105 -7 -128 -15 -6 -83 -11 -169 -11 l-145 0 0 75 0 75
151 0 c87 0 159 -4 170 -11z"/>
<path d="M1507 2503 c-87 -203 -158 -372 -157 -376 0 -4 59 -6 132 -5 l131 3
20 58 19 57 166 -2 166 -3 21 -55 21 -55 259 0 260 0 3 123 3 122 130 0 c73 0
139 -5 150 -11 29 -15 41 -52 48 -149 l6 -85 136 -3 137 -3 -13 38 c-7 21 -17
86 -23 145 -11 114 -31 160 -76 178 -21 8 -20 8 5 18 109 43 131 231 37 319
-52 49 -85 53 -454 53 l-344 0 3 -370 c1 -203 -1 -366 -4 -362 -3 4 -75 170
-160 369 l-154 363 -155 0 -156 0 -157 -367z m1352 171 c28 -36 27 -79 -4
-109 -23 -24 -29 -25 -165 -25 l-140 0 0 80 0 80 144 0 c144 0 145 0 165 -26z
m-987 -136 c26 -73 48 -134 48 -135 0 -2 -45 -3 -100 -3 -55 0 -100 3 -100 7
0 15 95 271 99 267 2 -2 26 -64 53 -136z"/>
<path d="M3250 2495 l0 -375 125 0 125 0 0 375 0 375 -125 0 -125 0 0 -375z"/>
<path d="M3602 2862 c1 -4 65 -85 141 -180 l138 -171 -122 -148 c-67 -81 -140
-169 -162 -195 l-39 -48 155 0 156 0 76 110 c42 61 80 108 84 105 5 -2 41 -52
81 -110 l73 -105 154 0 155 0 -38 48 c-21 26 -94 113 -162 194 l-123 148 141
175 c77 96 140 177 140 180 0 3 -65 5 -145 5 l-145 0 -62 -95 c-35 -52 -67
-93 -73 -92 -5 2 -37 44 -71 93 l-61 89 -148 3 c-81 1 -145 -1 -143 -6z"/>
</g>
</svg>
